:SAMPLES-PER-SECOND 30
:FULLY-SPECIFIED
:DEGREES
252
root  55.1827 38.1278 1.86093 -157.459 85.8493 -150.022
RightUpLeg  3.53646 -6.65407 -0.484566
RightLeg  23.7735 2.95625 1.20004
RightFoot  -17.4231 -0.137769 -0.538446
RightToes  5.47152e-009 0 -3.6325e-017
Spine  -1.48751 0.119346 6.71185
Spine1  17.0643 0.43431 -1.2045
HEad  -8.37985 -0.0354281 -1.40414
LeftShoulder1  1.37565 -1.68163 -20.0761
LeftArm  3.65605 -63.7682 -46.5611
LeftForeArm  -18.4585 -12.1125 -9.67382
LeftHand  -0.222691 9.68968 -4.3485
RightShoulder  0.795986 1.1754 9.72883
RightArm  -0.491908 60.9219 45.4539
RightForeArm  -42.0967 1.79146 6.04633
RightHand  -0.154333 -0.833045 -3.83649
LeftUpLeg  -13.497 3.5294 2.2624
LeftLeg  4.10715 -9.24444 -0.0264275
LeftFoot  10.9134 0.665978 -3.73438
LeftToes  -4.29285e-010 1.49941e-010 2.15559e-012
253
root  56.0094 37.8503 1.64812 -166.251 86.2881 -157.717
RightUpLeg  3.6331 -5.07475 -1.18695
RightLeg  28.7374 1.82482 0.869236
RightFoot  -18.9004 0.0109461 2.04245
RightToes  5.47152e-009 0 -3.6325e-017
Spine  0.272563 0.0181309 5.01961
Spine1  16.7757 0.341366 -1.10822
HEad  -9.88224 0.0773084 -1.40902
LeftShoulder1  1.30834 -1.32691 -20.6516
LeftArm  1.31468 -66.4551 -47.4497
LeftForeArm  -14.9092 -8.40698 -10.1353
LeftHand  -0.252399 9.93227 -4.82806
RightShoulder  0.834308 1.65743 8.77233
RightArm  -1.49705 63.2857 46.2282
RightForeArm  -39.2774 -2.87126 5.19294
RightHand  -0.0929297 -0.974537 -2.34412
LeftUpLeg  -14.4578 3.59943 1.68894
LeftLeg  10.3233 -9.84336 -1.44034
LeftFoot  12.2308 0.00767772 -0.360854
LeftToes  -4.29285e-010 1.49941e-010 2.15559e-012
254
root  56.7538 37.5802 1.28519 137.784 88.07 145.459
RightUpLeg  -0.898733 -3.40958 -4.6783
RightLeg  37.8331 2.74948 2.04472
RightFoot  -19.0353 0.231311 5.5547
RightToes  5.47152e-009 0 -3.6325e-017
Spine  -0.112302 0.725669 2.99215
Spine1  17.4419 1.40579 -2.29473
HEad  -11.0009 0.256979 -1.70746
LeftShoulder1  1.39541 -1.67247 -20.5234
LeftArm  -0.556863 -67.9948 -47.3645
LeftForeArm  -14.2591 -6.35167 -9.54439
LeftHand  -0.266998 10.2178 -4.82194
RightShoulder  0.885141 2.22563 7.96433
RightArm  -2.73693 65.2026 46.2158
RightForeArm  -36.6851 -5.60335 4.46731
RightHand  -0.0711105 -1.33334 -1.82011
LeftUpLeg  -16.5115 2.6885 -0.75294
LeftLeg  15.4925 -6.35397 -1.70003
LeftFoot  9.15316 -0.149141 0.530666
LeftToes  -4.29285e-010 1.49941e-010 2.15559e-012
255
root  57.46 37.4933 1.00124 65.4888 87.9946 75.7516
RightUpLeg  -1.69105 -2.4987 -7.01474
RightLeg  45.4766 3.99906 4.03938
RightFoot  -14.8452 0.223018 11.0638
RightToes  5.47152e-009 0 -3.6325e-017
Spine  4.15077 0.965141 2.78678
Spine1  16.7768 2.20236 -4.57867
HEad  -11.8014 1.09206 -2.17479
LeftShoulder1  1.38673 -1.6906 -20.2438
LeftArm  -2.16382 -68.6302 -46.8249
LeftForeArm  -13.8535 -4.79057 -8.57492
LeftHand  -0.320129 10.6093 -5.57334
RightShoulder  0.96855 2.96629 7.41822
RightArm  -3.78847 66.3723 46.6331
RightForeArm  -32.9271 -5.70537 3.93338
RightHand  -0.00958254 -1.50145 -0.0688186
LeftUpLeg  -13.9358 4.61167 -1.60571
LeftLeg  18.814 -5.88545 -1.94652
LeftFoot  6.68215 -0.390101 2.1931
LeftToes  -4.29285e-010 1.49941e-010 2.15559e-012
256
root  58.0653 37.5188 0.689562 40.763 87.2417 51.8003
RightUpLeg  -4.91819 -2.62596 -8.40396
RightLeg  52.2428 4.39514 5.6886
RightFoot  -7.74583 -0.450608 13.4092
RightToes  5.47152e-009 0 -3.6325e-017
Spine  7.19404 0.955612 4.03774
Spine1  15.3797 2.7439 -6.58817
HEad  -13.4669 1.48206 -2.8063
LeftShoulder1  1.36069 -1.68228 -19.7522
LeftArm  -2.53893 -69.5556 -46.6598
LeftForeArm  -14.0098 -3.05771 -8.29982
LeftHand  -0.293787 10.6303 -4.97432
RightShoulder  0.961483 3.24381 6.60908
RightArm  -4.26782 67.6324 46.8162
RightForeArm  -30.637 -5.72998 3.76457
RightHand  0.0337204 -1.16551 1.11881
LeftUpLeg  -12.7597 5.4831 -1.79065
LeftLeg  20.3985 -5.35069 -1.90825
LeftFoot  4.91317 -0.473611 3.10091
LeftToes  -4.29285e-010 1.49941e-010 2.15559e-012
257
root  58.6139 37.537 0.461136 25.8088 85.9575 37.196
RightUpLeg  -7.92711 -2.16179 -9.33136
RightLeg  56.6847 3.78814 5.74504
RightFoot  -3.26565 -0.88549 12.1223
RightToes  5.47152e-009 0 -3.6325e-017
Spine  8.36094 1.36845 3.76156
Spine1  16.2205 3.19767 -6.89193
HEad  -14.2887 2.29532 -3.39359
LeftShoulder1  1.38179 -1.71716 -19.9987
LeftArm  -3.36754 -70.8472 -45.739
LeftForeArm  -15.2777 -1.77286 -8.07734
LeftHand  -0.267002 10.5251 -4.50612
RightShoulder  0.983111 3.57515 6.19151
RightArm  -5.08906 69.051 45.9704
RightForeArm  -31.3937 -5.71022 3.79999
RightHand  0.0154281 -1.28294 0.632043
LeftUpLeg  -11.8928 6.89401 -2.00663
LeftLeg  21.5741 -5.09689 -1.96115
LeftFoot  3.19989 -0.462994 3.47441
LeftToes  -4.29285e-010 1.49941e-010 2.15559e-012
258
root  59.1229 37.7145 0.230814 18.0436 85.9588 29.1058
RightUpLeg  -10.1246 -2.30642 -9.15103
RightLeg  57.608 2.49928 3.82319
RightFoot  -4.04721 -0.760158 11.4585
RightToes  5.47152e-009 0 -3.6325e-017
Spine  9.18291 1.26302 4.25609
Spine1  15.7927 3.14476 -6.80393
HEad  -15.464 2.47199 -3.55821
LeftShoulder1  1.3824 -1.77064 -19.7228
LeftArm  -3.50799 -71.5079 -46.3708
LeftForeArm  -15.8473 -0.565309 -7.58614
LeftHand  -0.32896 11.1298 -5.19325
RightShoulder  1.06195 3.9352 6.63889
RightArm  -6.018 69.3568 44.8685
RightForeArm  -32.3548 -5.67085 3.76566
RightHand  -0.0137111 -1.79455 -0.122271
LeftUpLeg  -11.092 7.15556 -1.753
LeftLeg  21.1251 -5.08066 -1.94293
LeftFoot  2.7066 -0.519105 4.07686
LeftToes  -4.29285e-010 1.49941e-010 2.15559e-012
259
root  59.6001 37.9742 0.00604566 8.22255 86.2528 18.7144
RightUpLeg  -11.4357 -2.41729 -8.65004
RightLeg  55.3385 1.87514 2.51918
RightFoot  -4.79752 -0.661358 10.9592
RightToes  5.47152e-009 0 -3.6325e-017
Spine  9.62834 1.05997 5.29705
Spine1  15.4998 3.10124 -6.71638
HEad  -16.7824 2.34619 -3.41789
LeftShoulder1  1.40667 -1.83708 -19.8617
LeftArm  -3.27794 -72.1789 -47.4794
LeftForeArm  -15.7193 0.272114 -7.1012
LeftHand  -0.306419 11.1152 -4.74347
RightShoulder  1.07554 4.18419 6.30795
RightArm  -8.52879 68.7865 44.0995
RightForeArm  -29.2837 -5.55887 2.50747
RightHand  -0.00774228 -2.04664 0.11303
LeftUpLeg  -10.1319 6.90079 -1.34252
LeftLeg  19.6568 -4.9668 -1.80486
LeftFoot  2.77351 -0.595616 4.67178
LeftToes  -4.29285e-010 1.49941e-010 2.15559e-012
260
root  60.0184 38.1943 -0.0859084 3.02188 86.7314 12.9158
RightUpLeg  -12.1056 -1.40407 -7.92878
RightLeg  51.2162 1.53216 1.67542
RightFoot  -5.96992 -0.512889 10.0394
RightToes  5.47152e-009 0 -3.6325e-017
Spine  10.3079 1.09696 5.69989
Spine1  14.9628 3.18651 -6.39328
HEad  -17.8441 1.63825 -3.10728
LeftShoulder1  1.45465 -2.02525 -19.8321
LeftArm  -1.70562 -73.1921 -48.7537
LeftForeArm  -16.0834 0.664695 -7.53003
LeftHand  -0.26422 10.6861 -4.28275
RightShoulder  1.0118 3.99691 5.74942
RightArm  -8.54861 69.2956 42.6572
RightForeArm  -30.7816 -5.63839 3.25881
RightHand  0.0223017 -1.46465 0.9059
LeftUpLeg  -9.34356 6.66904 -1.0423
LeftLeg  18.1803 -5.19369 -1.84625
LeftFoot  3.03352 -0.618674 4.75727
LeftToes  -4.29285e-010 1.49941e-010 2.15559e-012
261
root  60.4325 38.3219 -0.122823 -1.49068 86.7033 7.48944
RightUpLeg  -12.467 0.736386 -7.3506
RightLeg  45.6825 1.88127 1.74766
RightFoot  -7.81612 -0.334701 9.07911
RightToes  5.47152e-009 0 -3.6325e-017
Spine  10.1909 1.16502 5.6152
Spine1  14.627 3.24063 -6.38246
HEad  -17.9811 1.36096 -2.75249
LeftShoulder1  1.45473 -2.01536 -19.884
LeftArm  -1.99909 -73.6543 -48.9617
LeftForeArm  -15.35 0.787137 -7.16531
LeftHand  -0.350714 11.5699 -5.17638
RightShoulder  1.01575 4.12936 5.53961
RightArm  -9.01516 69.0868 42.3076
RightForeArm  -30.6353 -5.62505 3.15286
RightHand  0.0486683 -0.723112 1.31835
LeftUpLeg  -9.32273 7.197 -0.717016
LeftLeg  17.6519 -5.68861 -2.15568
LeftFoot  2.71118 -0.614412 4.84939
LeftToes  -4.29285e-010 1.49941e-010 2.15559e-012
262
root  60.8405 38.4495 -0.13486 -5.37531 86.9783 2.99133
RightUpLeg  -11.7813 3.34197 -6.86887
RightLeg  39.2226 2.50488 1.92949
RightFoot  -8.96495 -0.222917 7.96562
RightToes  5.47152e-009 0 -3.6325e-017
Spine  9.35935 0.980049 5.05641
Spine1  15.0911 2.8455 -5.85958
HEad  -18.2687 1.35712 -2.69555
LeftShoulder1  1.44738 -1.96488 -20.0014
LeftArm  -3.09459 -74.1633 -47.713
LeftForeArm  -15.7347 1.41821 -7.00108
LeftHand  -0.34221 11.4583 -5.11331
RightShoulder  1.08333 4.50119 5.80886
RightArm  -9.37707 69.2677 41.9702
RightForeArm  -29.7464 -5.6317 3.02087
RightHand  0.0666827 -0.385465 1.605
LeftUpLeg  -8.92152 7.31056 -0.444625
LeftLeg  16.954 -6.04865 -2.34636
LeftFoot  2.58906 -0.656398 5.2402
LeftToes  -4.29285e-010 1.49941e-010 2.15559e-012
